# This file uses centimeters as units for non-parametric coordinates.

mtllib DummyRail.mtl
g default
v -0.250000 -0.250000 10.000000
v 0.250000 -0.250000 10.000000
v -0.250000 0.250000 10.000000
v 0.250000 0.250000 10.000000
v -0.250000 0.250000 -10.000000
v 0.250000 0.250000 -10.000000
v -0.250000 -0.250000 -10.000000
v 0.250000 -0.250000 -10.000000
v -0.125000 0.250000 10.000000
v -0.125000 0.250000 -10.000000
v -0.125000 -0.250000 -10.000000
v -0.125000 -0.250000 10.000000
v 0.125000 0.250000 10.000000
v 0.125000 0.250000 -10.000000
v 0.125000 -0.250000 -10.000000
v 0.125000 -0.250000 10.000000
v -0.125000 -0.000077 9.888889
v 0.125000 -0.000077 9.888889
v 0.125000 -0.000077 -9.888889
v -0.125000 -0.000077 -9.888889
vt 0.375000 0.000000
vt 0.625000 0.000000
vt 0.375000 0.250000
vt 0.625000 0.250000
vt 0.375000 0.500000
vt 0.625000 0.500000
vt 0.375000 0.750000
vt 0.625000 0.750000
vt 0.375000 1.000000
vt 0.625000 1.000000
vt 0.875000 0.000000
vt 0.875000 0.250000
vt 0.125000 0.000000
vt 0.125000 0.250000
vt 0.436948 0.250000
vt 0.436948 0.500000
vt 0.436948 0.750000
vt 0.436948 0.000000
vt 0.436948 1.000000
vt 0.563052 0.250000
vt 0.563052 0.500000
vt 0.563052 0.750000
vt 0.563052 0.000000
vt 0.563052 1.000000
vt 0.436948 0.250000
vt 0.563052 0.250000
vt 0.563052 0.500000
vt 0.436948 0.500000
vn 0.000005 0.000000 1.000000
vn 0.000002 0.000000 1.000000
vn 0.000002 0.000000 1.000000
vn 0.000005 0.000000 1.000000
vn -0.000000 1.000000 0.000000
vn -0.000000 1.000000 0.000000
vn -0.000000 1.000000 0.000000
vn -0.000000 1.000000 0.000000
vn 0.000005 0.000000 -1.000000
vn 0.000002 0.000000 -1.000000
vn 0.000002 0.000000 -1.000000
vn 0.000005 0.000000 -1.000000
vn 0.000000 -1.000000 0.000000
vn 0.000000 -1.000000 0.000000
vn 0.000000 -1.000000 0.000000
vn 0.000000 -1.000000 0.000000
vn 1.000000 0.000000 0.000000
vn 1.000000 0.000000 0.000000
vn 1.000000 0.000000 0.000000
vn 1.000000 0.000000 0.000000
vn -1.000000 0.000000 0.000000
vn -1.000000 0.000000 0.000000
vn -1.000000 0.000000 0.000000
vn -1.000000 0.000000 0.000000
vn 0.000000 1.000000 0.000000
vn 0.000000 1.000000 0.000000
vn 0.000000 1.000000 0.000000
vn 0.000000 1.000000 0.000000
vn -0.000002 0.000000 -1.000000
vn -0.000002 0.000000 -1.000000
vn 0.000000 -1.000000 0.000000
vn 0.000000 -1.000000 0.000000
vn -0.000002 0.000000 1.000000
vn -0.000002 0.000000 1.000000
vn 0.000000 1.000000 0.000000
vn 0.000000 1.000000 0.000000
vn 0.000000 1.000000 0.000000
vn 0.000000 1.000000 0.000000
vn -0.000005 0.000000 -1.000000
vn -0.000005 0.000000 -1.000000
vn 0.000000 -1.000000 0.000000
vn 0.000000 -1.000000 0.000000
vn -0.000005 0.000000 1.000000
vn -0.000005 0.000000 1.000000
vn 0.000000 0.406035 -0.913858
vn 0.000000 0.406035 -0.913858
vn 0.000000 0.406035 -0.913858
vn 0.000000 0.406035 -0.913858
vn -1.000000 0.000000 0.000000
vn -1.000000 0.000000 0.000000
vn -1.000000 0.000000 0.000000
vn -1.000000 0.000000 0.000000
vn 0.000000 0.406035 0.913858
vn 0.000000 0.406035 0.913858
vn 0.000000 0.406035 0.913858
vn 0.000000 0.406035 0.913858
vn 1.000000 -0.000000 0.000000
vn 1.000000 -0.000000 0.000000
vn 1.000000 -0.000000 0.000000
vn 1.000000 -0.000000 0.000000
s 1
g Rails
usemtl initialShadingGroup
f 1/1/1 12/18/2 9/15/3 3/3/4
s off
f 3/3/5 9/15/6 10/16/7 5/5/8
s 2
f 5/5/9 10/16/10 11/17/11 7/7/12
s 3
f 7/7/13 11/17/14 12/19/15 1/9/16
s off
f 2/2/17 8/11/18 6/12/19 4/4/20
f 7/13/21 1/1/22 3/3/23 5/14/24
f 17/25/25 18/26/26 19/27/27 20/28/28
s 2
f 11/17/11 10/16/10 14/21/29 15/22/30
s 3
f 12/19/15 11/17/14 15/22/31 16/24/32
s 1
f 9/15/3 12/18/2 16/23/33 13/20/34
s off
f 13/20/35 4/4/36 6/6/37 14/21/38
s 2
f 15/22/30 14/21/29 6/6/39 8/8/40
s 3
f 16/24/32 15/22/31 8/8/41 2/10/42
s 1
f 13/20/34 16/23/33 2/2/43 4/4/44
s off
f 9/15/45 13/20/46 18/26/47 17/25/48
f 13/20/49 14/21/50 19/27/51 18/26/52
f 14/21/53 10/16/54 20/28/55 19/27/56
f 10/16/57 9/15/58 17/25/59 20/28/60
